<?xml version="1.0" encoding="UTF-8"?>
<svg version="1.1" viewBox="0 0 2048 603" width="577" height="170" xmlns="http://www.w3.org/2000/svg">
<path transform="translate(0)" d="m0 0h2048v603h-2048z" fill="#FCFCEC"/>
<path transform="translate(87,57)" d="m0 0h562l8 3 8 9 2 12v443l-3 8-4 5-8 4-4 1h-561l-9-3-6-5-3-5-1-5-1-35v-383l1-33 4-8 6-5z" fill="#FDFDED"/>
<path transform="translate(891,110)" d="m0 0h6l4 4 1 3 1 217 3 7 4 3 4 1h11l1 12-3 3-22 7-26 10-5 1-7-1-3-3-1-3 1-15 2-8-3 3-6 9-7 7-14 7-13 3h-12l-18-2-17-8-14-10-10-11-9-14-7-18-4-20-1-14v-10l2-18 4-15 8-16 6-10 8-9 11-9 11-7 18-6 5-1h15l16 4 12 6 10 9 4 4v2h2l-1-51-3-6v-2l-6-2-12-1-1-1v-11l7-2 17-5 16-7z" fill="#0F0E0E"/>
<path transform="translate(1574,177)" d="m0 0 5 1 4 5v13l-2 22 9-12 8-8 12-9 15-7 7-2 8-1h14l12 3 10 5 7 7 6 10 5 14 1 1 7-11 12-12 14-9 11-5 14-3h16l13 3 11 6 7 8 5 10 4 16 1 10 1 118 5 5 9 4 7 2 1 5v6l-1 1h-87l-1-1v-9l1-2 14-4 6-5 1-3v-117l-2-15-5-12-6-5-3-1h-13l-12 5-9 7-6 5-9 13-3 5-1 4v110l3 5 5 4 15 5v10l-1 1h-88v-11l7-3 9-3 5-5 1-6v-92l-1-28-3-13-5-9-7-4h-13l-11 4-11 8-7 7-9 14-2 5v112l2 5 4 2 16 5 1 3v7l-1 2h-88v-12l14-4 7-5 1-8v-119l-2-8-4-4-4-2-13-1v-11l29-10 24-11z" fill="#0F0E0E"/>
<path transform="translate(1026,179)" d="m0 0h24l18 3 12 5 9 8 5 9 3 7 2 13 1 12 1 102 3 5 8 3 11 1v11l-5 3-26 8-22 9-8-1-4-2-2-10 1-14v-10l-6 10-9 10-12 9-11 5-8 2h-28l-13-4-11-7-8-8-6-12-2-9v-18l4-13 6-10 7-7 12-9 16-8 21-8 34-9 12-3v-38l-3-14-4-6-5-2h-16l-11 3-8 5-6 9-7 21-4 10-7 6-6 2h-10l-6-3-5-6-2-8 1-10 5-10 9-10 10-8 12-6 17-5z" fill="#0F0E0E"/>
<path transform="translate(1327,179)" d="m0 0h20l20 5 14 7 10 8 5 5 8 10 7 15 3 10 2 16-1 12-4 9-8 5-5 1h-103l3 28 5 19 8 16 8 9 10 6 11 3h15l13-4 10-6 8-9 7-11 2-1h10l2 2-1 6-6 11-9 10-14 9-13 5-12 2h-16l-18-2-15-5-12-6-14-11-9-10-9-15-7-21-2-12-1-12v-11l2-19 4-15 8-16 7-11 15-15 14-9 14-5z" fill="#0F0E0E"/>
<path transform="translate(1924,179)" d="m0 0h21l19 5 16 8 10 8 9 10 6 10 5 13 2 9v27l-3 6-6 5-6 2h-103l-1 5 2 20 4 17 6 15 7 10 9 8 11 5 5 1h16l13-4 11-7 7-9 7-10 1-1h10l2 1-1 9-7 11-10 10-11 7-14 5-13 2h-12l-15-1-18-5-14-7-12-9-10-10-9-14-6-15-4-17-1-9v-27l3-17 6-16 6-11 8-11 10-10 13-9 11-5 15-4z" fill="#0F0E0E"/>
<path transform="translate(87,57)" d="m0 0h562l8 3 8 9 2 12v443l-3 8-4 5-8 4-4 1h-561l-9-3-6-5-3-5-1-5-1-35v-383l1-33 4-8 6-5zm1 6-8 3-5 6-1 3v450l3 6 5 4 5 1h562l6-3 5-6 1-6v-437l-1-12-4-6-6-3z" fill="#4569FB"/>
<path transform="translate(812,192)" d="m0 0 13 1 12 5 8 6 11 11 3 4v108l-4 13-7 10-4 5-9 6-12 3h-7l-9-3-8-6-8-9-7-14-5-16-4-20-1-9v-39l3-19 6-16 7-10 6-5 10-5z" fill="#FCFBEC"/>
<path transform="translate(1177,130)" d="m0 0h16l1 1 1 50 41 1 2 6-1 7-3 1h-39v139l2 12 3 6v2l6 3h12l8-3 9-6 3 1-1 13-8 6-12 5-13 2h-13l-12-3-10-5-6-5-5-7-5-15-1-5-1-140h-17l-3-2v-9l1-3 12-1 10-4 8-7 6-10 5-16 2-13z" fill="#0F0E0E"/>
<path transform="translate(1054,264)" d="m0 0 2 1v57l-8 16-8 10-8 7-6 3-5 1h-11l-11-4-7-8-4-10-1-6v-14l4-14 9-12 7-7 13-8 17-7z" fill="#FBF9EC"/>
<path transform="translate(1332,192)" d="m0 0h9l8 2 8 6 7 9 5 13 3 14 2 21v9l-1 1h-77l-1-1v-14l3-20 6-17 8-12 9-7 6-3z" fill="#FBF8EB"/>
<path transform="translate(1929,192)" d="m0 0h9l8 2 6 4 5 5 5 7 5 14 3 16 1 10v16l-1 1h-77l-1-1 1-19 4-20 5-12 6-10 7-7 9-5z" fill="#FBF7EB"/>
<path transform="translate(1629,430)" d="m0 0h15l10 5 5 6 3 7v14l-3 7-7 8-7 4-4 1h-11l-10-5-8-9-2-5v-14l3-8 5-6 7-4z" fill="#FAF6EA"/>
<path transform="translate(539,157)" d="m0 0h10l10 4 5 5 3 8v15l-4 9-5 5-6 2-13 1-12-3-6-5-3-10v-15l3-7 4-5 8-3z" fill="#C15EB8"/>
<path transform="translate(184,215)" d="m0 0h15l10 4 5 6 2 7v16l-4 8-5 4-9 3h-13l-10-3-5-5-3-9v-14l4-10 8-6z" fill="#C15EB8"/>
<path transform="translate(418,216)" d="m0 0h14l12 4 4 5 3 11v8l-3 10-5 7-10 3h-15l-9-3-4-5-3-9-1-12 3-10 5-6z" fill="#C15EB8"/>
<path transform="translate(246,157)" d="m0 0h12l10 5 4 5 2 5 1 6v10l-4 10-5 5-6 2-14 1-11-3-4-2-4-8-1-6v-10l3-12 6-5z" fill="#C15EB8"/>
<path transform="translate(418,332)" d="m0 0h13l8 2 6 4 4 9 1 5v12l-4 8-5 5-9 3h-14l-10-3-5-6-2-8v-14l4-10 6-5z" fill="#C15EB8"/>
<path transform="translate(420,274)" d="m0 0h12l10 3 5 6 3 11v12l-4 8-5 5-9 3h-11l-12-3-6-6-2-7v-16l4-10 6-4z" fill="#C15EB8"/>
<path transform="translate(534,99)" d="m0 0h15l11 4 5 6 2 6v15l-6 12-4 3-8 2h-14l-9-3-4-5-3-8-1-13 2-9 4-6z" fill="#C15EB8"/>
<path transform="translate(477,157)" d="m0 0h14l10 4 5 6 2 7v16l-4 9-4 4-5 2-10 1-11-1-8-4-4-6-2-9v-9l2-9 6-8z" fill="#C15EB8"/>
<path transform="translate(358,216)" d="m0 0h18l10 5 3 4 2 7v15l-4 10-5 5-7 2h-16l-9-3-5-8-2-8v-11l2-9 5-6z" fill="#C15EB8"/>
<path transform="translate(729,429)" d="m0 0h19l9 2 6 4 6 10 1 4v13l-4 10-7 7-10 3h-21v-52z" fill="#F8F2E9"/>
<path transform="translate(361,332)" d="m0 0h14l7 2 6 7 3 10v13l-3 8-5 5-9 3h-14l-10-3-5-6-2-7v-13l2-9 6-7 4-2z" fill="#C15EB8"/>
<path transform="translate(540,274)" d="m0 0 12 1 9 4 4 5 3 10v7l-4 11-5 6-9 4-8 1-17-5-4-5-2-5-1-7v-9l2-8 5-6 9-3z" fill="#C15EB8"/>
<path transform="translate(301,157)" d="m0 0h14l10 4 5 4 3 7 1 5v8l-4 11-5 6-11 3h-12l-10-4-4-4-3-9v-15l4-10 3-3z" fill="#C15EB8"/>
<path transform="translate(242,99)" d="m0 0h15l11 4 4 5 3 10v10l-4 10-4 6-10 3h-14l-9-3-4-5-3-8v-18l4-9 4-3z" fill="#C15EB8"/>
<path transform="translate(478,274)" d="m0 0h14l9 3 4 6 3 10v12l-6 12-5 3-6 2h-12l-11-3-5-4-3-6v-19l2-7 5-6z" fill="#C15EB8"/>
<path transform="translate(244,332)" d="m0 0h13l8 2 6 7 3 13v8l-3 9-4 6-9 3h-15l-10-3-5-6-2-8v-12l3-11 5-5 4-2z" fill="#C15EB8"/>
<path transform="translate(361,274)" d="m0 0h13l10 4 5 5 2 7v16l-6 12-6 3-5 1h-15l-10-4-4-6-2-8v-11l2-9 5-7z" fill="#C15EB8"/>
<path transform="translate(594,157)" d="m0 0h13l10 4 6 7 2 6v15l-6 12-5 3-4 1h-19l-9-4-4-8-1-5v-12l2-9 6-7z" fill="#C15EB8"/>
<path transform="translate(187,274)" d="m0 0h11l8 2 5 4 4 9 1 4v12l-4 10-5 4-8 3h-11l-13-4-5-5-3-11v-8l4-13 6-5z" fill="#C15EB8"/>
<path transform="translate(302,274)" d="m0 0h10l8 2 8 5 3 4 2 7v12l-3 9-7 6-9 3h-12l-12-5-4-4-2-9v-12l4-10 4-5z" fill="#C15EB8"/>
<path transform="translate(123,216)" d="m0 0h19l7 2 5 6 3 10v14l-4 9-5 5-7 2h-14l-9-3-7-8-1-4v-18l4-10 6-4z" fill="#C15EB8"/>
<path transform="translate(482,332)" d="m0 0 11 1 8 3 4 4 3 7 1 5-1 13-4 8-6 5-6 2h-15l-10-3-4-5-2-5v-21l3-7 5-4 5-2z" fill="#C15EB8"/>
<path transform="translate(357,450)" d="m0 0h19l8 3 4 4 3 8v16l-4 9-4 4-10 3h-11l-12-3-5-6-2-9v-11l2-10 4-5z" fill="#C15EB8"/>
<path transform="translate(297,333)" d="m0 0h17l12 4 4 3 3 10v12l-4 11-8 5-7 2h-12l-11-4-4-4-3-9v-13l4-10 6-6z" fill="#C15EB8"/>
<path transform="translate(424,157)" d="m0 0 10 1 12 6 3 5 2 10-1 11-4 9-7 4-6 2h-15l-10-4-4-5-2-7v-12l3-10 4-6 8-3z" fill="#C15EB8"/>
<path transform="translate(183,99)" d="m0 0h16l10 4 5 6 2 8v13l-4 9-5 4-9 3h-11l-12-3-5-5-2-6-1-12 2-10 3-5 6-5z" fill="#C15EB8"/>
<path transform="translate(301,216)" d="m0 0h15l12 5 4 8 1 5v11l-6 12-6 5-5 1h-13l-14-5-3-4-2-9v-14l3-8 8-5z" fill="#C15EB8"/>
<path transform="translate(531,216)" d="m0 0h24l4 2 6 10 2 8v10l-5 10-7 6-4 1h-14l-11-4-5-4-3-12v-7l3-11 7-8z" fill="#C15EB8"/>
<path transform="translate(357,391)" d="m0 0h20l7 3 6 12 1 3v12l-5 11-5 5-7 2h-12l-12-5-6-7-1-5v-10l3-12 4-6z" fill="#C15EB8"/>
<path transform="translate(471,216)" d="m0 0h24l6 3 4 7 3 10v8l-4 11-5 6-7 2h-15l-12-5-4-4-1-4v-17l4-11 4-5z" fill="#C15EB8"/>
<path transform="translate(299,391)" d="m0 0h18l7 2 4 5 4 9 1 12-4 11-5 6-11 3h-7l-11-3-6-4-3-5-2-11 1-9 4-10 4-4z" fill="#C15EB8"/>
<path transform="translate(245,274)" d="m0 0h9l9 2 8 5 3 7 1 7v8l-2 8-6 7-6 3-5 1h-12l-9-4-6-5-2-4-1-8 1-11 4-10 5-4z" fill="#C15EB8"/>
<path transform="translate(183,158)" d="m0 0h17l12 6 3 5 1 5v14l-7 14-7 3-14 1-10-2-5-4-4-8-1-5v-9l3-10 5-8z" fill="#C15EB8"/>
<path transform="translate(425,391)" d="m0 0 12 2 7 4 4 5 2 7v12l-6 12-5 4-9 3h-8l-11-4-6-4-3-9v-18l3-7 4-3 9-3z" fill="#C15EB8"/>
<path transform="translate(244,216)" d="m0 0h10l13 4 5 4 3 11v11l-3 9-6 5-7 3-13 1-11-4-5-3-3-6v-19l4-10 3-3z" fill="#C15EB8"/>
<path transform="translate(596,216)" d="m0 0h9l13 4 5 6 2 5v14l-5 12-5 5-8 2h-11l-13-5-5-6-1-7v-12l2-10 5-4z" fill="#C15EB8"/>
<path transform="translate(475,99)" d="m0 0h17l10 4 4 6 2 8v16l-4 7-10 5-4 1h-10l-12-3-5-4-2-6-1-12 2-12 5-7z" fill="#C15EB8"/>
<path transform="translate(132,157)" d="m0 0 12 2 9 5 3 4 2 16-2 10-6 7-7 3-5 1h-11l-10-4-5-5-2-5v-15l4-13 5-4z" fill="#C15EB8"/>
<path transform="translate(1394,429)" d="m0 0h14l6 3 5 6 1 9-3 5-6 5-5 1 11 20v4l-4-1-6-9-7-12-4-2v21l-1 3-5-1v-47l1-4z" fill="#0F0E0E"/>
<path transform="translate(1317,428)" d="m0 0 3 1 8 18 13 31v4l-5-1-5-11v-2l-26 1-6 13h-4l1-8 12-28 7-16z" fill="#0F0E0E"/>
<path transform="translate(841,428)" d="m0 0 3 1 20 47 1 5-4 1-3-4-4-9-9-1h-17l-3 9-3 5-4-1 1-5 17-40 4-7z" fill="#0F0E0E"/>
<path transform="translate(1132,429)" d="m0 0 4 1 7 10 17 28 1-38h5l1 1v50l-3 1-5-5-22-34v14l-1 25-5-1v-51z" fill="#0F0E0E"/>
<path transform="translate(1629,430)" d="m0 0h15l10 5 5 6 3 7v14l-3 7-7 8-7 4-4 1h-11l-10-5-8-9-2-5v-14l3-8 5-6 7-4zm3 4-9 4-6 7-2 6v9l5 10 7 5 4 1h10l7-3 5-5 3-4 1-3v-10l-3-8-8-7-5-2z" fill="#0F0E0E"/>
<path transform="translate(729,429)" d="m0 0h19l9 2 6 4 6 10 1 4v13l-4 10-7 7-10 3h-21v-52zm5 5-1 2v39l1 1h18l6-3 5-7 2-8v-8l-4-9-7-6-3-1z" fill="#0F0E0E"/>
<path transform="translate(1221,429)" d="m0 0h27l1 3-1 2h-22v18h19l1 5-1 1h-19v18h22l1 5-1 1h-27l-1-1v-51z" fill="#0F0E0E"/>
<path transform="translate(1715,430)" d="m0 0h5l1 32 3 9 6 4h10l5-3 4-6 1-36h5l1 1v33l-3 9-7 6-5 2h-12l-6-3-6-7-2-5z" fill="#0F0E0E"/>
<path transform="translate(988,429)" d="m0 0h26l1 4-1 1-21 1-1 17h18l2 1-1 5h-19v18h22l1 5-3 1h-25l-1-2 1-50z" fill="#0F0E0E"/>
<path transform="translate(1530,429)" d="m0 0 5 1 12 22h2l12-21 4-2 1 5-9 17-5 9-2 21-4 1-1-2v-13l-2-9-10-18-3-7z" fill="#0F0E0E"/>
<path transform="translate(907,429)" d="m0 0h30l1 3-1 2-13 1v46l-5 1-1-48h-12l-1-4z" fill="#0F0E0E"/>
<path transform="translate(1396,434)" d="m0 0h12l5 4 1 2v8l-6 5h-12l-1-2v-16z" fill="#F7EEE8"/>
<path transform="translate(1317,439)" d="m0 0h2l9 22v1h-20l3-9z" fill="#F4EEE9"/>
<path transform="translate(841,439)" d="m0 0 3 3 7 17v3h-19l1-5 7-17z" fill="#F5EEE9"/>
</svg>
